<svg xmlns="http://www.w3.org/2000/svg" width="104" height="104" fill="none" viewBox="0 0 104 104"><g clip-path="url(#clip0_106:89)"><path fill="#2A4048" d="M87.3469 19.7787C80.8129 16.832 73.8092 14.654 66.4851 13.4156C66.4199 13.403 66.3524 13.4111 66.292 13.4386C66.2315 13.4662 66.1811 13.5118 66.1478 13.5693C65.2509 15.1451 64.2516 17.1993 63.5513 18.8221C55.7835 17.6615 47.8864 17.6615 40.1186 18.8221C39.3385 17.0236 38.4588 15.2699 37.4836 13.5693C37.4506 13.5111 37.4006 13.4645 37.3403 13.4355C37.28 13.4065 37.2123 13.3965 37.1462 13.407C29.8265 14.6455 22.8227 16.8235 16.2845 19.7745C16.2282 19.798 16.1805 19.8383 16.1478 19.8898C2.85774 39.4277 -0.785066 58.483 1.00431 77.2992C1.00929 77.3453 1.02359 77.3899 1.04635 77.4302C1.06911 77.4706 1.09985 77.506 1.1367 77.5341C8.89375 83.1816 17.5457 87.4838 26.7303 90.2604C26.7943 90.2801 26.8628 90.2801 26.9268 90.2603C26.9908 90.2404 27.0473 90.2018 27.089 90.1494C29.062 87.5016 30.8215 84.7044 32.3248 81.7662C32.4144 81.5954 32.329 81.3904 32.1497 81.3221C29.3909 80.2832 26.7178 79.0295 24.1551 77.5725C24.1091 77.5462 24.0703 77.5089 24.0422 77.4639C24.0141 77.419 23.9977 77.3677 23.9943 77.3148C23.9909 77.2619 24.0007 77.209 24.0228 77.1608C24.0449 77.1126 24.0786 77.0706 24.121 77.0387C24.6591 76.6415 25.1972 76.2273 25.7096 75.813C25.7558 75.7758 25.8113 75.7521 25.8701 75.7445C25.9289 75.737 25.9887 75.7459 26.0427 75.7703C42.8133 83.3036 60.9761 83.3036 77.5502 75.7703C77.6044 75.7445 77.6648 75.7344 77.7244 75.7412C77.7841 75.748 77.8406 75.7714 77.8876 75.8088C78.4001 76.2273 78.9339 76.6415 79.4763 77.0387C79.519 77.07 79.5533 77.1113 79.5761 77.1591C79.5989 77.2069 79.6095 77.2596 79.607 77.3125C79.6044 77.3654 79.5888 77.4168 79.5616 77.4622C79.5343 77.5076 79.4962 77.5455 79.4506 77.5725C76.8968 79.0416 74.2405 80.2843 71.4518 81.3178C71.409 81.3334 71.37 81.3579 71.3374 81.3897C71.3048 81.4215 71.2793 81.4599 71.2628 81.5024C71.2462 81.5448 71.2389 81.5903 71.2413 81.6358C71.2437 81.6813 71.2558 81.7258 71.2767 81.7662C72.8141 84.7001 74.5736 87.4931 76.5082 90.1451C76.5484 90.1995 76.6045 90.2402 76.6687 90.2616C76.7329 90.283 76.8021 90.2841 76.8669 90.2647C86.0673 87.4958 94.7334 83.1916 102.499 77.5341C102.537 77.5076 102.569 77.4733 102.592 77.4335C102.616 77.3938 102.631 77.3494 102.636 77.3035C104.771 55.5491 99.0569 36.6475 87.4793 19.8983C87.4509 19.8439 87.404 19.8014 87.3469 19.7787ZM34.8316 65.8412C29.7838 65.8412 25.6199 61.276 25.6199 55.6772C25.6199 50.0742 29.7026 45.5132 34.8316 45.5132C39.999 45.5132 44.1244 50.1127 44.0432 55.6772C44.0432 61.2802 39.9606 65.8412 34.8316 65.8412ZM68.8895 65.8412C63.8374 65.8412 59.6778 61.276 59.6778 55.6772C59.6778 50.0742 63.7562 45.5132 68.8895 45.5132C74.0569 45.5132 78.1823 50.1127 78.1011 55.6772C78.1011 61.2802 74.0612 65.8412 68.8895 65.8412Z"/></g><defs><clipPath id="clip0_106:89"><rect width="102.494" height="102.494" fill="#fff" transform="translate(0.581543 0.595398)"/></clipPath></defs></svg>