<svg width="104" height="104" viewBox="0 0 104 104" fill="none" xmlns="http://www.w3.org/2000/svg">
<g clip-path="url(#clip0_106:83)">
<path fill-rule="evenodd" clip-rule="evenodd" d="M52.1881 0.86322C23.8742 0.86322 0.941162 23.7962 0.941162 52.1102C0.941162 74.787 15.6106 93.9406 35.9813 100.731C38.5436 101.179 39.5045 99.6418 39.5045 98.2966C39.5045 97.0794 39.4405 93.0437 39.4405 88.7518C26.5647 91.122 23.2336 85.6129 22.2087 82.7303C21.6321 81.2569 19.1338 76.7088 16.9558 75.4916C15.1622 74.5308 12.5999 72.1606 16.8918 72.0965C20.9275 72.0325 23.8101 75.8119 24.771 77.3493C29.3832 85.1005 36.75 82.9225 39.6967 81.5772C40.1451 78.2462 41.4903 76.0041 42.9637 74.7229C31.5612 73.4418 19.6463 69.0217 19.6463 49.4197C19.6463 43.8466 21.6321 39.2344 24.8991 35.6471C24.3867 34.3659 22.593 29.1131 25.4116 22.0667C25.4116 22.0667 29.7035 20.7214 39.5045 27.3195C43.6043 26.1664 47.9603 25.5899 52.3163 25.5899C56.6723 25.5899 61.0283 26.1664 65.128 27.3195C74.929 20.6574 79.2209 22.0667 79.2209 22.0667C82.0395 29.1131 80.2459 34.3659 79.7334 35.6471C83.0004 39.2344 84.9862 43.7826 84.9862 49.4197C84.9862 69.0858 73.0072 73.4418 61.6048 74.7229C63.4625 76.3244 65.064 79.3992 65.064 84.2036C65.064 91.0579 64.9999 96.567 64.9999 98.2966C64.9999 99.6418 65.9608 101.243 68.5231 100.731C78.6964 97.2961 87.5365 90.7576 93.7993 82.0357C100.062 73.3139 103.432 62.8477 103.435 52.1102C103.435 23.7962 80.5021 0.86322 52.1881 0.86322Z" fill="#2A4048"/>
</g>
<defs>
<clipPath id="clip0_106:83">
<rect width="102.494" height="102.494" fill="white" transform="translate(0.941162 0.86322)"/>
</clipPath>
</defs>
</svg>
