<svg width="104" height="104" viewBox="0 0 104 104" fill="none" xmlns="http://www.w3.org/2000/svg">
<path d="M52.1488 38.5001C44.8021 38.5001 38.8066 44.4956 38.8066 51.8424C38.8066 59.1891 44.8021 65.1846 52.1488 65.1846C59.4956 65.1846 65.4911 59.1891 65.4911 51.8424C65.4911 44.4956 59.4956 38.5001 52.1488 38.5001ZM92.1655 51.8424C92.1655 46.3173 92.2156 40.8423 91.9053 35.3272C91.595 28.9213 90.1337 23.2361 85.4494 18.5518C80.7551 13.8575 75.0798 12.4062 68.674 12.0959C63.1489 11.7856 57.6739 11.8357 52.1588 11.8357C46.6338 11.8357 41.1587 11.7856 35.6437 12.0959C29.2378 12.4062 23.5526 13.8675 18.8683 18.5518C14.174 23.2461 12.7227 28.9213 12.4124 35.3272C12.1021 40.8523 12.1521 46.3273 12.1521 51.8424C12.1521 57.3574 12.1021 62.8424 12.4124 68.3575C12.7227 74.7634 14.184 80.4486 18.8683 85.1329C23.5626 89.8272 29.2378 91.2785 35.6437 91.5888C41.1688 91.8991 46.6438 91.849 52.1588 91.849C57.6839 91.849 63.1589 91.8991 68.674 91.5888C75.0798 91.2785 80.7651 89.8172 85.4494 85.1329C90.1437 80.4386 91.595 74.7634 91.9053 68.3575C92.2256 62.8424 92.1655 57.3674 92.1655 51.8424ZM52.1488 72.3712C40.7884 72.3712 31.62 63.2028 31.62 51.8424C31.62 40.4819 40.7884 31.3135 52.1488 31.3135C63.5092 31.3135 72.6776 40.4819 72.6776 51.8424C72.6776 63.2028 63.5092 72.3712 52.1488 72.3712ZM73.5184 35.2672C70.866 35.2672 68.724 33.1252 68.724 30.4728C68.724 27.8203 70.866 25.6784 73.5184 25.6784C76.1708 25.6784 78.3128 27.8203 78.3128 30.4728C78.3136 31.1026 78.1901 31.7264 77.9495 32.3084C77.7088 32.8905 77.3557 33.4193 76.9103 33.8647C76.465 34.31 75.9361 34.6632 75.3541 34.9038C74.772 35.1445 74.1482 35.268 73.5184 35.2672Z" fill="#2A4048"/>
</svg>
