<svg xmlns="http://www.w3.org/2000/svg" width="103" height="103" fill="none" viewBox="0 0 103 103"><path fill="#2A4048" fill-rule="evenodd" d="M4.53223 12.3725C4.53223 10.2908 5.35921 8.29425 6.83124 6.82222C8.30328 5.35018 10.2998 4.5232 12.3816 4.5232H90.6272C91.6588 4.52152 92.6807 4.72334 93.6343 5.1171C94.5878 5.51086 95.4544 6.08884 96.1842 6.81794C96.9141 7.54704 97.4931 8.41295 97.8879 9.36609C98.2827 10.3192 98.4856 11.3409 98.485 12.3725V90.6181C98.4862 91.65 98.2838 92.672 97.8896 93.6256C97.4954 94.5791 96.917 95.4456 96.1875 96.1755C95.4581 96.9053 94.5919 97.4842 93.6385 97.8789C92.6852 98.2737 91.6633 98.4766 90.6314 98.476H12.3816C11.3504 98.476 10.3294 98.2728 9.37676 97.8781C8.42416 97.4834 7.55867 96.9048 6.82973 96.1755C6.1008 95.4462 5.52271 94.5803 5.1285 93.6275C4.73428 92.6747 4.53167 91.6536 4.53223 90.6224V12.3725ZM41.7205 40.3448H54.4425V46.7336C56.2789 43.0609 60.9765 39.7555 68.0358 39.7555C81.5693 39.7555 84.7765 47.071 84.7765 60.4935V85.3568H71.0807V63.5512C71.0807 55.9068 69.2444 51.5936 64.5809 51.5936C58.111 51.5936 55.4205 56.2442 55.4205 63.5512V85.3568H41.7205V40.3448ZM18.2323 84.7717H31.9323V39.7555H18.2323V84.7674V84.7717ZM33.8925 25.0732C33.9183 26.2463 33.7096 27.4126 33.2785 28.5039C32.8475 29.5951 32.2028 30.5893 31.3824 31.428C30.5619 32.2667 29.5822 32.9331 28.5007 33.3881C27.4192 33.8431 26.2577 34.0774 25.0844 34.0774C23.9111 34.0774 22.7496 33.8431 21.6681 33.3881C20.5866 32.9331 19.6069 32.2667 18.7864 31.428C17.966 30.5893 17.3213 29.5951 16.8903 28.5039C16.4592 27.4126 16.2505 26.2463 16.2763 25.0732C16.327 22.7708 17.2773 20.5797 18.9236 18.9692C20.5699 17.3588 22.7814 16.457 25.0844 16.457C27.3874 16.457 29.5989 17.3588 31.2452 18.9692C32.8915 20.5797 33.8418 22.7708 33.8925 25.0732Z" clip-rule="evenodd"/></svg>