<svg width="731" height="1543" viewBox="0 0 731 1543" fill="none" xmlns="http://www.w3.org/2000/svg">
<path d="M661 1469.5C661 1578.58 563.357 1523.5 463.5 1527.5C463.5 1527.5 266 1578.58 266 1469.5C266 1360.42 354.424 1272 463.5 1272C572.576 1272 661 1360.42 661 1469.5Z" fill="#939393"/>
<path d="M208.048 338.231C207.865 229.155 381.32 499.44 350.286 465.492C350.286 465.492 501.364 228.662 501.548 337.738C501.731 446.814 459.532 566.309 350.456 566.492C241.38 566.676 208.232 447.308 208.048 338.231Z" fill="#C4C4C4"/>
<rect x="558.468" y="873" width="62" height="422" transform="rotate(14.6133 558.468 873)" fill="#C4C4C4"/>
<rect x="338" y="551.424" width="62" height="422" transform="rotate(-32.6218 338 551.424)" fill="#C4C4C4"/>
<path d="M589 812L651.354 848V920L589 956L526.646 920V848L589 812Z" fill="#949292"/>
<path d="M394.739 477.707L442.558 531.534L419.851 599.86L349.326 614.358L301.507 560.531L324.214 492.205L394.739 477.707Z" fill="#8A8A8A"/>
<path d="M478.392 122.044L337.048 7.73394C331.656 3.37335 323.544 3.96889 318.929 9.06413L280.567 51.4236C275.953 56.5188 276.583 64.1843 281.975 68.5449L423.319 182.855C428.711 187.216 436.823 186.62 441.437 181.525L479.8 139.166C484.414 134.07 483.784 126.405 478.392 122.044Z" fill="#05BFCE"/>
<path d="M492.316 291.318L254.445 98.9432C249.053 94.5826 240.941 95.1781 236.327 100.273L197.964 142.633C193.35 147.728 193.98 155.394 199.372 159.754L437.244 352.129C442.635 356.49 450.747 355.894 455.362 350.799L493.724 308.439C498.338 303.344 497.708 295.679 492.316 291.318Z" fill="#FFCD10"/>
<path d="M329.241 317.459L300.538 294.246C295.146 289.885 287.034 290.48 282.42 295.576L244.057 337.935C239.443 343.03 240.073 350.696 245.465 355.056L274.168 378.27C279.56 382.631 287.672 382.035 292.286 376.94L330.649 334.58C335.263 329.485 334.633 321.82 329.241 317.459Z" fill="#95BF15"/>
<path d="M247.907 253.198L171.605 191.49C166.213 187.13 158.101 187.725 153.487 192.82L116.145 234.053C111.531 239.148 112.161 246.813 117.553 251.174L193.855 312.882C199.247 317.243 207.358 316.647 211.973 311.552L249.314 270.32C253.929 265.224 253.299 257.559 247.907 253.198Z" fill="#EE1700"/>
<path d="M409.707 382.534L381.862 360.015C376.47 355.655 368.358 356.25 363.744 361.345L325.381 403.705C320.767 408.8 321.397 416.466 326.789 420.826L354.634 443.345C360.026 447.706 368.138 447.11 372.752 442.015L411.115 399.656C415.729 394.56 415.099 386.895 409.707 382.534Z" fill="#205B67"/>
<path d="M574.919 200.109L530.093 163.857C524.702 159.496 516.59 160.092 511.975 165.187L473.613 207.547C468.998 212.642 469.629 220.307 475.021 224.668L519.846 260.92C525.238 265.28 533.35 264.685 537.964 259.59L576.327 217.23C580.941 212.135 580.311 204.47 574.919 200.109Z" fill="#0060FF"/>
</svg>
