<svg width="1250" height="1056" viewBox="0 0 1250 1056" fill="none" xmlns="http://www.w3.org/2000/svg">
<path d="M295.584 235.158L119.038 176.486C112.303 174.248 105.029 177.894 102.791 184.628L84.1846 240.617C81.9464 247.352 85.5916 254.626 92.3263 256.864L268.873 315.535C275.607 317.773 282.881 314.128 285.119 307.393L303.726 251.404C305.964 244.67 302.319 237.396 295.584 235.158Z" fill="#05BFCE"/>
<path d="M376.086 395.782L78.9736 297.044C72.2389 294.805 64.9649 298.451 62.7268 305.185L44.1201 361.175C41.882 367.909 45.5272 375.183 52.2619 377.421L349.375 476.16C356.109 478.398 363.383 474.753 365.621 468.018L384.228 412.029C386.466 405.294 382.821 398.02 376.086 395.782Z" fill="#FFCD10"/>
<path d="M235.514 482.948L199.662 471.033C192.927 468.795 185.653 472.44 183.415 479.175L164.808 535.164C162.57 541.899 166.215 549.173 172.95 551.411L208.802 563.326C215.537 565.564 222.811 561.919 225.049 555.184L243.655 499.195C245.894 492.46 242.248 485.186 235.514 482.948Z" fill="#95BF15"/>
<path d="M134.529 450.674L39.2235 419.001C32.4888 416.763 25.2149 420.408 22.9768 427.143L4.86523 481.642C2.6271 488.377 6.27229 495.651 13.007 497.889L108.312 529.561C115.047 531.8 122.321 528.154 124.559 521.42L142.67 466.92C144.908 460.186 141.263 452.912 134.529 450.674Z" fill="#EE1700"/>
<path d="M336.019 516.349L301.239 504.79C294.504 502.552 287.231 506.197 284.992 512.932L266.386 568.921C264.148 575.656 267.793 582.93 274.528 585.168L309.307 596.726C316.042 598.964 323.316 595.319 325.554 588.585L344.161 532.595C346.399 525.861 342.754 518.587 336.019 516.349Z" fill="#205B67"/>
<path d="M416.151 275.225L360.162 256.618C353.427 254.38 346.153 258.025 343.915 264.76L325.308 320.749C323.07 327.484 326.715 334.758 333.45 336.996L389.439 355.603C396.174 357.841 403.448 354.196 405.686 347.461L424.293 291.472C426.531 284.737 422.885 277.463 416.151 275.225Z" fill="#0060FF"/>
<path d="M1250 985.5C1250 1094.58 1152.36 1039.5 1052.5 1043.5C1052.5 1043.5 855 1094.58 855 985.5C855 876.424 943.424 788 1052.5 788C1161.58 788 1250 876.424 1250 985.5Z" fill="#939393"/>
<path d="M433.913 435.545C343.225 496.153 472.06 201.972 461.003 246.619C461.003 246.619 180.142 252.132 270.83 191.524C361.518 130.916 484.369 99.8104 544.977 190.498C605.585 281.186 524.601 374.937 433.913 435.545Z" fill="#C4C4C4"/>
<rect x="1147.47" y="389" width="62" height="422" transform="rotate(14.6133 1147.47 389)" fill="#C4C4C4"/>
<rect x="921.141" y="70.0107" width="62" height="422" transform="rotate(75.7648 921.141 70.0107)" fill="#C4C4C4"/>
<rect x="927" y="67.4236" width="62" height="422" transform="rotate(-32.6218 927 67.4236)" fill="#C4C4C4"/>
<path d="M1178 328L1240.35 358.255V418.766L1178 449.021L1115.65 418.766V358.255L1178 328Z" fill="#949292"/>
<path d="M972.224 22.7065L1021.85 71.0823L1002.77 128.505L934.058 137.552L884.427 89.1762L903.511 31.7535L972.224 22.7065Z" fill="#8A8A8A"/>
<path d="M552 152L614.354 182.255V242.766L552 273.021L489.646 242.766V182.255L552 152Z" fill="#8A8A8A"/>
</svg>
